<svg width="24" height="24" viewBox="0 0 24 24" fill="none" xmlns="http://www.w3.org/2000/svg">
<path d="M8.555 15.07C7.83916 15.6708 6.93452 16.0001 6 16.0001C5.06548 16.0001 4.16084 15.6708 3.445 15.07C2.85214 15.425 2.36136 15.9276 2.02049 16.5287C1.67963 17.1298 1.5003 17.809 1.5 18.5V19C1.5 19.663 1.76339 20.2989 2.23223 20.7678C2.70107 21.2366 3.33696 21.5 4 21.5H8C8.66304 21.5 9.29893 21.2366 9.76777 20.7678C10.2366 20.2989 10.5 19.663 10.5 19V18.5C10.4997 17.809 10.3204 17.1298 9.97951 16.5287C9.63864 15.9276 9.14786 15.425 8.555 15.07Z" fill="#267ADC"/>
<path d="M6 15.5C7.933 15.5 9.5 13.933 9.5 12C9.5 10.067 7.933 8.5 6 8.5C4.067 8.5 2.5 10.067 2.5 12C2.5 13.933 4.067 15.5 6 15.5Z" fill="#267ADC"/>
<path d="M21 2.5H11C10.6022 2.5 10.2206 2.65804 9.93934 2.93934C9.65804 3.22064 9.5 3.60218 9.5 4V9C9.5 9.39782 9.65804 9.77936 9.93934 10.0607C10.2206 10.342 10.6022 10.5 11 10.5H12.219C12.3305 10.5 12.4387 10.5373 12.5266 10.6058C12.6145 10.6744 12.6769 10.7704 12.704 10.8785L12.9205 11.744C12.951 11.8659 13.0117 11.9782 13.097 12.0706C13.1823 12.1629 13.2894 12.2324 13.4085 12.2725C13.4862 12.2986 13.5676 12.3119 13.6495 12.312C13.8193 12.3119 13.9841 12.2539 14.1165 12.1475L16.0385 10.6095C16.1269 10.5388 16.2368 10.5002 16.35 10.5H21C21.3978 10.5 21.7794 10.342 22.0607 10.0607C22.342 9.77936 22.5 9.39782 22.5 9V4C22.5 3.60218 22.342 3.22064 22.0607 2.93934C21.7794 2.65804 21.3978 2.5 21 2.5ZM18.5 7H13.5C13.3674 7 13.2402 6.94732 13.1464 6.85355C13.0527 6.75979 13 6.63261 13 6.5C13 6.36739 13.0527 6.24021 13.1464 6.14645C13.2402 6.05268 13.3674 6 13.5 6H18.5C18.6326 6 18.7598 6.05268 18.8536 6.14645C18.9473 6.24021 19 6.36739 19 6.5C19 6.63261 18.9473 6.75979 18.8536 6.85355C18.7598 6.94732 18.6326 7 18.5 7Z" fill="#267ADC"/>
</svg>
