<svg width="27" height="27" viewBox="0 0 27 27" fill="none" xmlns="http://www.w3.org/2000/svg">
<g clip-path="url(#clip0_787_247)">
<path d="M13.3136 0.219727C6.14053 0.219727 0.305176 6.05508 0.305176 13.2281C0.305176 20.4012 6.14053 26.2365 13.3136 26.2365C20.4866 26.2365 26.322 20.4012 26.322 13.2281C26.322 6.05508 20.4866 0.219727 13.3136 0.219727ZM17.6497 14.3122H13.3136C12.7152 14.3122 12.2296 13.8276 12.2296 13.2281V6.72393C12.2296 6.12446 12.7152 5.6399 13.3136 5.6399C13.912 5.6399 14.3976 6.12446 14.3976 6.72393V12.1441H17.6497C18.2492 12.1441 18.7338 12.6287 18.7338 13.2281C18.7338 13.8276 18.2492 14.3122 17.6497 14.3122Z" fill="#128377"/>
</g>
<defs>
<clipPath id="clip0_787_247">
<rect width="26.0168" height="26.0168" fill="white" transform="translate(0.305176 0.219727)"/>
</clipPath>
</defs>
</svg>
