<svg width="29" height="28" viewBox="0 0 29 28" fill="none" xmlns="http://www.w3.org/2000/svg">
<g clip-path="url(#clip0_787_253)">
<path d="M22.1608 14.1381H16.7542C16.1457 14.1381 15.5622 13.8964 15.1319 13.4661C14.7016 13.0359 14.4599 12.4523 14.4599 11.8438V6.42231C14.4615 5.8946 14.3416 5.37359 14.1097 4.89958C13.8778 4.42556 13.5399 4.01123 13.1223 3.68863C12.7266 3.37524 12.2641 3.157 11.7706 3.05079C11.2771 2.94457 10.7658 2.95321 10.2762 3.07604C7.4951 3.76642 5.03292 5.38535 3.29685 7.6651C1.56079 9.94486 0.654831 12.7489 0.728806 15.6134C0.802781 18.478 1.85226 21.2315 3.70368 23.4186C5.55509 25.6057 8.09755 27.0954 10.9106 27.6413C14.0734 28.2467 17.3481 27.62 20.0638 25.8895C22.7796 24.1591 24.7311 21.4558 25.5185 18.3333C25.6418 17.843 25.6508 17.331 25.5448 16.8367C25.4388 16.3425 25.2206 15.8792 24.9071 15.4826C24.5807 15.0655 24.164 14.7279 23.6883 14.495C23.2127 14.2622 22.6904 14.1401 22.1608 14.1381ZM23.2942 17.7723C22.855 19.5411 21.9538 21.1614 20.6829 22.4677C19.4119 23.7739 17.8169 24.7191 16.0608 25.2066C14.3047 25.6941 12.4507 25.7064 10.6883 25.2423C8.92588 24.7781 7.31839 23.8542 6.03023 22.565C4.74207 21.2757 3.81947 19.6675 3.35679 17.9047C2.89411 16.1419 2.90796 14.2879 3.39692 12.5322C3.88587 10.7765 4.83239 9.18225 6.13967 7.91241C7.44694 6.64256 9.06804 5.74274 10.8372 5.30497C10.9885 5.26716 11.1466 5.26531 11.2988 5.29958C11.451 5.33384 11.5931 5.40326 11.7136 5.50229C11.856 5.61082 11.9714 5.75068 12.051 5.91103C12.1306 6.07137 12.1721 6.24789 12.1725 6.4269V11.8438C12.1725 13.0608 12.6559 14.2279 13.5165 15.0885C14.377 15.949 15.5441 16.4324 16.7611 16.4324H22.1665C22.3471 16.4332 22.5252 16.4748 22.6873 16.5543C22.8494 16.6338 22.9914 16.749 23.1026 16.8913C23.2001 17.0135 23.2681 17.1567 23.3011 17.3095C23.3341 17.4623 23.3325 17.6207 23.2942 17.7723Z" fill="#128377"/>
<path d="M27.8256 8.91402C27.2974 6.97242 26.2714 5.20239 24.8491 3.77908C23.4268 2.35577 21.6575 1.32853 19.7163 0.799008C19.5128 0.744299 19.303 0.71653 19.0922 0.716412C18.7891 0.713532 18.4884 0.770751 18.2075 0.884761C17.9267 0.998772 17.6712 1.16731 17.4558 1.38065C17.2404 1.59398 17.0695 1.84788 16.9528 2.12767C16.8362 2.40746 16.7761 2.7076 16.7761 3.01073V8.40239C16.7761 9.31513 17.1387 10.1905 17.7841 10.8359C18.4295 11.4813 19.3049 11.8439 20.2176 11.8439H25.6311C25.9851 11.8405 26.3337 11.7555 26.6496 11.5955C26.9655 11.4355 27.2403 11.2048 27.4526 10.9214C27.6648 10.638 27.8089 10.3095 27.8736 9.96131C27.9383 9.61316 27.9219 9.25479 27.8256 8.91402ZM24.96 9.54955H20.213C19.9088 9.54955 19.617 9.42869 19.4019 9.21356C19.1867 8.99842 19.0659 8.70664 19.0659 8.40239L19.0567 3.01876C19.0651 3.01269 19.075 3.00911 19.0854 3.00844H19.1152C20.6777 3.43413 22.1013 4.26218 23.2438 5.40996C24.3864 6.55773 25.2079 7.98507 25.6265 9.54955H24.96Z" fill="#128377"/>
<path d="M5.62036 7.95483L10.9983 3.99219L13.0739 5.87912V10.7852L14.3004 14.1818L16.7535 15.0309L20.9992 16.0687H24.3957V18.6161L23.0748 21.6353L19.2066 25.881L14.3004 26.6357H10.0548L4.20518 22.107L2.59868 17.8232V12.7589L5.62036 7.95483Z" fill="#128377"/>
<path d="M18.7336 9.10792L18.4392 2.92482L19.4404 2.63037H21.9725L24.2102 4.69142L26.9779 8.81351V10.3446L24.2102 10.8157L19.4404 10.3446L18.7336 9.10792Z" fill="#128377"/>
</g>
<defs>
<clipPath id="clip0_787_253">
<rect width="27.5319" height="27.5319" fill="white" transform="translate(0.693848 0.372559)"/>
</clipPath>
</defs>
</svg>
