<svg width="28" height="29" viewBox="0 0 28 29" fill="none" xmlns="http://www.w3.org/2000/svg">
<path d="M13.854 0.980469C10.2096 0.984471 6.71562 2.43397 4.13864 5.01095C1.56166 7.58793 0.112157 11.0819 0.108154 14.7263V26.2728C0.108154 26.8561 0.339869 27.4155 0.752324 27.828C1.16478 28.2404 1.72419 28.4721 2.30749 28.4721H13.854C17.4996 28.4721 20.9959 27.0239 23.5738 24.4461C26.1516 21.8682 27.5998 18.3719 27.5998 14.7263C27.5998 11.0807 26.1516 7.58438 23.5738 5.00653C20.9959 2.42869 17.4996 0.980469 13.854 0.980469ZM18.2527 18.5751H8.90549C8.61384 18.5751 8.33414 18.4593 8.12791 18.2531C7.92168 18.0468 7.80582 17.7671 7.80582 17.4755C7.80582 17.1838 7.92168 16.9041 8.12791 16.6979C8.33414 16.4917 8.61384 16.3758 8.90549 16.3758H18.2527C18.5443 16.3758 18.824 16.4917 19.0302 16.6979C19.2365 16.9041 19.3523 17.1838 19.3523 17.4755C19.3523 17.7671 19.2365 18.0468 19.0302 18.2531C18.824 18.4593 18.5443 18.5751 18.2527 18.5751ZM18.2527 14.1765H8.90549C8.61384 14.1765 8.33414 14.0606 8.12791 13.8544C7.92168 13.6482 7.80582 13.3685 7.80582 13.0768C7.80582 12.7852 7.92168 12.5055 8.12791 12.2992C8.33414 12.093 8.61384 11.9771 8.90549 11.9771H18.2527C18.5443 11.9771 18.824 12.093 19.0302 12.2992C19.2365 12.5055 19.3523 12.7852 19.3523 13.0768C19.3523 13.3685 19.2365 13.6482 19.0302 13.8544C18.824 14.0606 18.5443 14.1765 18.2527 14.1765Z" fill="#128377"/>
</svg>
