<svg width="27" height="27" viewBox="0 0 27 27" fill="none" xmlns="http://www.w3.org/2000/svg">
<path d="M12.3206 2.72383V9.77765C12.3206 10.4012 12.0728 10.9993 11.6319 11.4402C11.1909 11.8812 10.5929 12.1289 9.9693 12.1289H2.91548C2.29189 12.1289 1.69383 11.8812 1.25288 11.4402C0.811931 10.9993 0.564209 10.4012 0.564209 9.77765V2.72383C0.564209 2.10023 0.811931 1.50218 1.25288 1.06123C1.69383 0.620281 2.29189 0.372559 2.91548 0.372559H9.9693C10.5929 0.372559 11.1909 0.620281 11.6319 1.06123C12.0728 1.50218 12.3206 2.10023 12.3206 2.72383ZM24.0769 0.372559H17.0231C16.3995 0.372559 15.8015 0.620281 15.3605 1.06123C14.9196 1.50218 14.6718 2.10023 14.6718 2.72383V9.77765C14.6718 10.4012 14.9196 10.9993 15.3605 11.4402C15.8015 11.8812 16.3995 12.1289 17.0231 12.1289H24.0769C24.7005 12.1289 25.2986 11.8812 25.7395 11.4402C26.1805 10.9993 26.4282 10.4012 26.4282 9.77765V2.72383C26.4282 2.10023 26.1805 1.50218 25.7395 1.06123C25.2986 0.620281 24.7005 0.372559 24.0769 0.372559ZM9.9693 14.4802H2.91548C2.29189 14.4802 1.69383 14.7279 1.25288 15.1689C0.811931 15.6098 0.564209 16.2079 0.564209 16.8315V23.8853C0.564209 24.5089 0.811931 25.1069 1.25288 25.5479C1.69383 25.9888 2.29189 26.2366 2.91548 26.2366H9.9693C10.5929 26.2366 11.1909 25.9888 11.6319 25.5479C12.0728 25.1069 12.3206 24.5089 12.3206 23.8853V16.8315C12.3206 16.2079 12.0728 15.6098 11.6319 15.1689C11.1909 14.7279 10.5929 14.4802 9.9693 14.4802ZM24.0769 14.4802H17.0231C16.3995 14.4802 15.8015 14.7279 15.3605 15.1689C14.9196 15.6098 14.6718 16.2079 14.6718 16.8315V23.8853C14.6718 24.5089 14.9196 25.1069 15.3605 25.5479C15.8015 25.9888 16.3995 26.2366 17.0231 26.2366H24.0769C24.7005 26.2366 25.2986 25.9888 25.7395 25.5479C26.1805 25.1069 26.4282 24.5089 26.4282 23.8853V16.8315C26.4282 16.2079 26.1805 15.6098 25.7395 15.1689C25.2986 14.7279 24.7005 14.4802 24.0769 14.4802Z" fill="#118376"/>
</svg>
