<svg width="31" height="31" viewBox="0 0 31 31" fill="none" xmlns="http://www.w3.org/2000/svg">
<circle cx="23.1416" cy="23.8805" r="5.93286" stroke="white" stroke-width="2"/>
<path fill-rule="evenodd" clip-rule="evenodd" d="M0 15.4077C0 23.5469 6.62131 30.1682 14.7605 30.1682C16.7185 30.1682 18.5886 29.785 20.2998 29.0898C19.4695 28.6358 18.7596 27.9892 18.2303 27.2099C17.1295 27.5341 15.9649 27.7081 14.7605 27.7081C7.97805 27.7081 2.46008 22.1902 2.46008 15.4077C2.46008 8.62527 7.97805 3.1073 14.7605 3.1073C21.5429 3.1073 27.0609 8.62527 27.0609 15.4077C27.0609 16.659 26.8731 17.8672 26.5242 19.0057C27.2972 19.5431 27.9363 20.2597 28.3814 21.0952C29.1153 19.344 29.521 17.4224 29.521 15.4077C29.521 7.26853 22.8997 0.647217 14.7605 0.647217C6.62131 0.647217 0 7.26853 0 15.4077ZM15.9905 14.1777H20.9107V16.6378H13.5305V6.79742H15.9905V14.1777Z" fill="white"/>
<path d="M22.5547 26.5279V21.7268H23.51V26.5279H22.5547ZM20.6335 24.6032V23.648H25.4347V24.6032H20.6335Z" fill="white"/>
</svg>
