<svg width="24" height="24" viewBox="0 0 24 24" fill="none" xmlns="http://www.w3.org/2000/svg">
<path d="M11.5 1C8.47199 1 6 3.47199 6 6.5C6 9.52801 8.47199 12 11.5 12C14.528 12 17 9.52801 17 6.5C17 3.47199 14.528 1 11.5 1Z" fill="#7D1673"/>
<path d="M8.13086 12C3.43129 13.4752 0 17.9406 0 23.2169C2.03296e-05 23.4246 0.0808004 23.6238 0.224574 23.7706C0.368347 23.9175 0.56334 24 0.766667 24H11.4775C11.3622 23.9966 11.2491 23.9666 11.1467 23.9123C11.0443 23.858 10.9552 23.7808 10.8861 23.6865L8.58607 20.5542C8.52161 20.4661 8.47603 20.3652 8.45229 20.2579C8.42856 20.1507 8.4272 20.0395 8.44831 19.9317L9.84538 12.7968C9.23032 12.6197 8.65209 12.3521 8.13086 12ZM14.8676 12C14.3467 12.3518 13.7693 12.6198 13.1546 12.7968L14.5517 19.9317C14.5728 20.0395 14.5714 20.1507 14.5477 20.2579C14.524 20.3652 14.4784 20.4661 14.4139 20.5542L12.1139 23.6865C12.0448 23.7808 11.9557 23.858 11.8533 23.9123C11.7509 23.9666 11.6378 23.9966 11.5225 24H22.2333C22.4367 24 22.6317 23.9175 22.7754 23.7706C22.9192 23.6238 23 23.4246 23 23.2169C23 17.9403 19.5676 13.475 14.8676 12Z" fill="#7D1673"/>
</svg>
