<svg width="32" height="32" viewBox="0 0 32 32" fill="none" xmlns="http://www.w3.org/2000/svg">
<path d="M28.9012 26.9701C28.9012 27.2369 28.7952 27.4928 28.6066 27.6814C28.4179 27.8701 28.162 27.9761 27.8952 27.9761H3.75206C3.48526 27.9761 3.22939 27.8701 3.04073 27.6814C2.85208 27.4928 2.74609 27.2369 2.74609 26.9701C2.74609 26.7033 2.85208 26.4474 3.04073 26.2588C3.22939 26.0701 3.48526 25.9641 3.75206 25.9641H4.75802V17.9164C4.75802 17.6496 4.86401 17.3937 5.05267 17.2051C5.24132 17.0164 5.49719 16.9105 5.76399 16.9105H8.78189C9.04869 16.9105 9.30456 17.0164 9.49321 17.2051C9.68187 17.3937 9.78785 17.6496 9.78785 17.9164V25.9641H11.7998V11.8806C11.7998 11.6138 11.9058 11.358 12.0944 11.1693C12.2831 10.9806 12.5389 10.8747 12.8057 10.8747H16.8296C17.0964 10.8747 17.3523 10.9806 17.5409 11.1693C17.7296 11.358 17.8356 11.6138 17.8356 11.8806V25.9641H19.8475V5.84483C19.8475 5.57803 19.9535 5.32216 20.1421 5.13351C20.3308 4.94485 20.5867 4.83887 20.8535 4.83887H25.8833C26.1501 4.83887 26.406 4.94485 26.5946 5.13351C26.7833 5.32216 26.8893 5.57803 26.8893 5.84483V25.9641H27.8952C28.162 25.9641 28.4179 26.0701 28.6066 26.2588C28.7952 26.4474 28.9012 26.7033 28.9012 26.9701Z" fill="#128377"/>
</svg>
