<?xml version="1.0" standalone="no"?>
<!DOCTYPE svg PUBLIC "-//W3C//DTD SVG 20010904//EN"
 "http://www.w3.org/TR/2001/REC-SVG-20010904/DTD/svg10.dtd">
<svg version="1.0" xmlns="http://www.w3.org/2000/svg"
 width="512.000000pt" height="512.000000pt" viewBox="0 0 512.000000 512.000000"
 preserveAspectRatio="xMidYMid meet">

<g transform="translate(0.000000,512.000000) scale(0.100000,-0.100000)"
fill="#000000" stroke="none">
<path d="M2010 5109 c-450 -18 -968 -65 -1090 -99 -299 -83 -597 -338 -740
-634 -27 -56 -58 -135 -70 -176 -53 -194 -110 -1034 -110 -1640 0 -606 57
-1446 110 -1640 100 -361 447 -707 810 -810 190 -53 1035 -110 1640 -110 597
0 1411 53 1617 105 377 96 726 438 833 815 53 189 110 1035 110 1640 0 605
-57 1451 -110 1640 -104 367 -444 707 -810 810 -130 36 -626 80 -1125 100
-283 11 -775 11 -1065 -1z m1290 -389 c317 -19 664 -50 744 -66 231 -45 462
-236 566 -468 38 -84 48 -133 65 -303 85 -861 85 -1812 -1 -2648 -17 -168 -27
-217 -60 -292 -103 -236 -337 -432 -570 -477 -82 -16 -422 -46 -764 -68 -303
-19 -1196 -16 -1520 6 -339 22 -653 51 -716 67 -269 66 -525 335 -578 605 -17
84 -47 424 -68 764 -17 269 -17 1171 0 1440 21 340 51 680 68 764 53 270 309
539 578 605 92 23 662 68 1066 85 165 7 1017 -3 1190 -14z"/>
<path d="M2445 4191 c-59 -34 -99 -87 -115 -151 -7 -31 -10 -274 -8 -795 3
-749 3 -750 25 -791 29 -54 93 -110 140 -123 53 -15 1393 -15 1446 0 48 13
111 69 140 123 34 64 30 160 -9 222 -34 56 -94 101 -150 114 -21 5 -281 10
-576 10 l-538 0 0 611 c0 435 -3 623 -12 650 -40 137 -216 203 -343 130z"/>
</g>
</svg>
