<svg width="72" height="72" viewBox="0 0 72 72" fill="none" xmlns="http://www.w3.org/2000/svg">
<path d="M5.40039 5.40002H66.6004V66.6H5.40039V5.40002Z" fill="#FEFEFE"/>
<path d="M34.6992 19.9917C34.6316 19.7846 34.5662 19.5366 34.6759 19.3323C34.8195 19.065 35.1909 18.9902 35.4568 18.9106C35.5095 19.2682 35.5895 19.612 35.6599 19.9659C35.327 19.9273 35.032 19.9509 34.6992 19.9917Z" fill="#A9412B"/>
<path d="M46.9961 36.7949C47.3279 36.4478 47.6775 36.1082 48.0293 35.7816C48.4405 36.0438 49.9071 36.804 50.0049 37.2413C50.0371 37.3855 49.9781 37.5048 49.8991 37.6216C49.6759 37.9512 48.8623 38.7524 48.4761 38.8332C48.3639 38.8567 48.2553 38.8407 48.1613 38.7731C47.6416 38.3989 47.3583 37.337 46.9961 36.7949Z" fill="#E4A987"/>
<path d="M20.8125 56.4613C21.1992 56.1094 21.7702 55.2256 22.0643 54.7672L22.5923 55.331C23.314 56.0961 24.0235 56.8724 24.7209 57.6598L25.0833 58.0634C24.7324 58.1461 24.2166 58.1596 23.9035 58.3225C23.6878 58.4348 23.4102 58.816 23.1564 58.7931C22.9582 58.5296 22.6569 58.288 22.4206 58.0533C21.8874 57.5198 21.3513 56.9891 20.8125 56.4613Z" fill="#EB912C"/>
<path d="M47.6134 59.1877C47.7346 59.2358 48.3152 59.0523 48.4905 59.0187C48.5011 59.6667 48.5101 60.3381 48.5751 60.9824C48.4054 61.0394 48.2363 61.0979 48.0677 61.158C47.7583 61.2415 47.3694 61.2268 47.0454 61.2516C46.3847 61.3021 45.718 61.3528 45.0613 61.4413C44.991 61.4606 44.9289 61.47 44.8568 61.4762C44.6795 61.403 44.0776 60.2697 43.9531 60.048C44.2347 59.9667 44.5297 59.9183 44.8167 59.8591C45.1547 59.7895 47.4513 59.3121 47.5653 59.2382C47.5848 59.2256 47.5973 59.2045 47.6134 59.1877Z" fill="#EB912C"/>
<path d="M41.5488 25.056C41.6281 24.7873 41.832 24.4751 41.9567 24.2192C42.0581 24.0108 42.1383 23.7922 42.2447 23.5869C42.7654 25.4414 43.1719 27.3444 43.5893 29.2252C43.6484 29.4916 43.8971 30.9646 43.9609 31.078C43.8774 31.3622 43.769 31.5672 43.4956 31.7157C43.2749 31.8355 42.9935 31.8673 42.7534 31.7908C42.4864 31.7056 42.3105 31.489 42.1907 31.2455C42.1834 31.2307 42.1774 31.2153 42.1707 31.2003C42.0703 30.8705 42.0668 30.4863 42.0387 30.1436L41.9141 28.5625C41.8406 27.6669 41.7297 26.7767 41.6434 25.8828C41.6217 25.6583 41.6568 25.2453 41.5488 25.056Z" fill="#A9412B"/>
<path d="M33.4648 20.6923L33.4794 20.7964C32.9356 21.3476 32.6438 22.0643 32.3025 22.7482C32.1087 23.1363 31.9033 23.5148 31.6903 23.8928C31.5245 24.3093 31.2882 24.7145 31.084 25.1143L29.9678 27.3006C29.69 27.8467 29.3033 28.4467 29.2287 29.0628C29.0595 29.347 28.8963 29.6383 28.7178 29.9165C28.4673 29.8143 28.2236 29.6946 27.9789 29.5794C27.8602 29.5689 27.1982 29.187 27.0742 29.0968C27.4674 28.5141 27.8308 27.9122 28.2153 27.3237C29.176 25.8287 30.1607 24.3497 31.1692 22.8865C31.5165 22.3815 31.817 21.7572 32.2554 21.33C32.6037 20.9906 33.013 20.8434 33.4648 20.6923Z" fill="#EAAE2F"/>
<path d="M27.9785 29.5795C28.1133 29.2468 31.4768 24.0999 31.6899 23.8928C31.5241 24.3093 31.2879 24.7145 31.0836 25.1143L29.9674 27.3006C29.6896 27.8467 29.3029 28.4467 29.2283 29.0628C29.0591 29.347 28.8959 29.6383 28.7174 29.9165C28.4669 29.8143 28.2232 29.6946 27.9785 29.5795Z" fill="#FEFEFE"/>
<path d="M43.9609 31.0781C44.5147 31.5923 45.0223 32.1648 45.5546 32.7022C46.476 33.6323 47.4219 34.5501 48.309 35.5126L48.028 35.7816C47.6763 36.1082 47.3267 36.4478 46.9949 36.7949C46.7859 36.9887 46.5756 37.1808 46.3638 37.3715C45.7237 36.7641 45.1262 36.0958 44.5023 35.4695C43.7653 34.7297 42.9923 34.0173 42.287 33.2472C42.2016 32.7259 42.1383 31.7314 42.1708 31.2003C42.1774 31.2154 42.1835 31.2307 42.1907 31.2455C42.3105 31.489 42.4865 31.7056 42.7534 31.7908C42.9935 31.8673 43.2749 31.8355 43.4956 31.7157C43.7691 31.5672 43.8775 31.3622 43.9609 31.0781Z" fill="#0E797C"/>
<path d="M18.5664 58.0539C18.9647 57.4492 20.1373 56.7487 20.8107 56.4613C21.3496 56.9892 21.8856 57.5198 22.4188 58.0533C22.6551 58.288 22.9564 58.5296 23.1547 58.7931C22.9707 58.9422 22.8447 59.3254 22.7447 59.5438C22.8817 59.7806 23.0207 60.0169 23.1819 60.2382C22.996 60.291 22.805 60.3311 22.617 60.3758C22.686 60.552 22.761 60.7227 22.8427 60.8935C23.0586 60.8372 23.2701 60.779 23.4925 60.7566C23.7866 61.3689 24.0997 61.966 24.1201 62.6607C24.136 63.2019 23.9495 63.5954 23.5855 63.9839C22.7138 62.9996 21.8863 61.9657 21.0296 60.9668C20.2053 60.0058 19.3311 59.0628 18.5664 58.0539Z" fill="#063F88"/>
<path d="M48.0672 61.158C48.525 61.5749 49.1557 61.7903 49.5985 62.2155C49.5051 62.3236 49.398 62.4165 49.4118 62.5721C49.4185 62.6471 49.4524 62.7181 49.5134 62.7639C49.5782 62.8125 49.6495 62.8171 49.726 62.8008C49.8157 62.7815 49.908 62.7045 49.9498 62.6241C49.9805 62.5652 49.9884 62.4956 50.001 62.4312L50.0281 62.2977C50.9654 62.3311 52.1425 62.4351 52.823 63.1644C53.069 63.4281 53.2098 63.738 53.2875 64.0886C51.4227 64.1163 49.5582 64.1561 47.6939 64.2081C46.7538 64.2296 45.8105 64.2231 44.8711 64.258C44.9338 63.3197 44.9659 62.377 45.0608 61.4413C45.7175 61.3528 46.3842 61.3021 47.0449 61.2516C47.3689 61.2268 47.7578 61.2415 48.0672 61.158Z" fill="#063F88"/>
<path d="M47.6172 61.7222C47.8578 61.7427 49.0039 62.266 49.2175 62.4291C49.2895 62.484 49.2972 62.5112 49.3111 62.599C48.9184 62.5341 48.1268 62.1433 47.7817 61.9279C47.6829 61.8663 47.6431 61.8372 47.6172 61.7222Z" fill="#1F2048"/>
<path d="M37.2903 16.5248C38.0586 17.3494 39.2572 18.0476 40.3947 18.1653C40.3872 18.3485 40.3524 18.5544 40.3687 18.7345C40.9509 19.244 41.7061 19.5737 42.2448 20.1231C42.6688 20.6834 42.5645 21.7957 42.4715 22.4471C42.4303 22.736 42.2319 23.3508 42.2451 23.5869C42.1387 23.7922 42.0585 24.0108 41.957 24.2192C41.8324 24.4751 41.6284 24.7872 41.5492 25.056C41.3706 25.3156 41.1915 25.5461 40.9542 25.7548C39.827 25.169 38.8997 24.0036 38.1362 23.0102C37.9191 22.7277 37.7338 22.3664 37.483 22.1218C37.394 21.971 37.2962 21.8285 37.1962 21.6849C37.1077 21.4352 37.0439 21.1959 36.9286 20.9537C36.6605 20.3905 36.223 20.1637 35.6602 19.9659C35.5897 19.612 35.5098 19.2682 35.457 18.9106C35.4743 18.6083 35.4661 18.2567 35.5588 17.9668C35.6491 17.6844 35.8209 17.5557 36.0705 17.4218C36.3579 17.238 36.659 17.1853 36.9897 17.137L37.0151 17.0978C37.083 17.0981 37.1295 17.0993 37.1917 17.0701C37.2261 16.9969 37.2451 16.9465 37.2496 16.8654C37.2559 16.7503 37.2731 16.6386 37.2903 16.5248Z" fill="#EC6C25"/>
<path d="M36.9895 17.137L37.1896 17.1498C37.2269 17.4384 37.1608 17.8579 37.107 18.1435C38.1325 18.7275 39.2038 19.1662 40.3064 19.5818C40.3238 19.3 40.335 19.015 40.3685 18.7345C40.9507 19.244 41.7059 19.5737 42.2446 20.1231C42.2199 20.1297 42.2032 20.1351 42.1787 20.1386C41.205 20.2787 37.2641 18.6006 36.4458 17.9702C36.2554 17.8234 36.1029 17.6685 36.0703 17.4217C36.3577 17.238 36.6588 17.1852 36.9895 17.137Z" fill="#A9412B"/>
<path d="M37.2909 16.5248C38.0592 17.3494 39.2578 18.0476 40.3953 18.1653C40.3878 18.3485 40.353 18.5544 40.3693 18.7345C40.3358 19.015 40.3246 19.3 40.3072 19.5818C39.2046 19.1662 38.1333 18.7275 37.1078 18.1435C37.1616 17.8578 37.2277 17.4384 37.1904 17.1498L36.9902 17.137L37.0157 17.0978C37.0836 17.0981 37.1301 17.0993 37.1922 17.0701C37.2267 16.9969 37.2457 16.9465 37.2502 16.8654C37.2565 16.7503 37.2737 16.6386 37.2909 16.5248Z" fill="#E4A987"/>
<path d="M23.2123 32.0344C23.3166 32.1868 23.4099 32.3096 23.5615 32.4201C23.9097 32.6737 24.3313 32.8356 24.7115 33.0363C25.2908 33.342 25.8592 33.6901 26.4617 33.9468C26.2964 34.2926 25.8387 35.1613 25.974 35.5289C26.1082 35.8938 26.7501 36.1609 27.0953 36.3032C27.3206 36.3961 27.5841 36.4621 27.8183 36.3572C28.2213 36.1768 28.4819 35.3831 28.6636 35.0015C29.307 35.3007 30.7759 36.1883 31.3396 36.2967C31.5705 36.341 31.7863 36.3158 32.0064 36.2369C32.3372 36.1184 32.586 35.8902 32.8505 35.6695C32.8939 35.5033 33.3244 34.7013 33.429 34.4808C33.6867 34.7394 33.94 35.0276 34.2166 35.2643C33.9512 35.7681 33.7551 36.3198 33.5388 36.8469L32.6226 39.0633C32.5301 39.2789 32.4493 39.526 32.3328 39.728C31.9033 40.1368 31.5176 40.3609 30.907 40.3441C30.7737 40.3395 30.6405 40.3332 30.5074 40.3252C30.2016 40.2763 29.9017 40.1981 29.6184 40.0715C29.2144 39.8909 28.8299 39.645 28.4402 39.4339C27.5551 38.9628 26.6755 38.4816 25.8014 37.9903L23.7045 36.8624C23.3598 36.6775 23.001 36.5037 22.6687 36.2974C22.4007 36.1312 22.1913 35.9215 22.1251 35.6022C21.9617 34.8128 22.7637 32.7358 23.2123 32.0344Z" fill="#EB912C"/>
<path d="M33.4294 34.4808C33.687 34.7394 33.9404 35.0276 34.217 35.2643C33.9516 35.7682 33.7554 36.3199 33.5392 36.8469L32.623 39.0633C32.5305 39.2789 32.4497 39.526 32.3332 39.7281C31.9036 40.1369 31.518 40.3609 30.9073 40.3442C30.7741 40.3396 30.6409 40.3332 30.5078 40.3252C30.7688 40.0941 31.0352 39.9121 31.2294 39.6153C31.5402 39.1403 31.7194 38.4906 31.9328 37.96C32.2388 37.1992 32.5792 36.4431 32.8509 35.6696C32.8943 35.5033 33.3248 34.7014 33.4294 34.4808Z" fill="#C98436"/>
<path d="M23.2133 32.0345C23.1683 31.9327 23.1211 31.8278 23.0941 31.7195C23.0801 31.662 23.07 31.6038 23.0638 31.545C23.0576 31.4861 23.0554 31.4271 23.0572 31.368C23.059 31.3088 23.0647 31.2501 23.0743 31.1917C23.084 31.1333 23.0976 31.0758 23.1149 31.0193C23.2273 30.6491 23.4718 30.3154 23.6541 29.9764C23.8364 29.6373 23.9937 29.2794 24.1946 28.9509C24.3766 28.6533 24.6365 28.4281 24.9843 28.3551C25.5137 28.2441 25.9074 28.5365 26.3587 28.7487C26.5947 28.8596 26.8554 28.955 27.074 29.0968C27.198 29.187 27.86 29.5689 27.9787 29.5794C28.2234 29.6946 28.4671 29.8143 28.7176 29.9165C28.9988 30.0417 29.2618 30.2036 29.5274 30.3586C29.7438 30.5748 29.867 30.8953 30.0844 31.1265C30.3248 31.3822 30.5895 31.6187 30.837 31.8683C31.7004 32.7391 32.5767 33.6004 33.4301 34.4808C33.3255 34.7014 32.895 35.5033 32.8515 35.6696C32.587 35.8902 32.3382 36.1184 32.0075 36.2369C31.7873 36.3159 31.5715 36.3411 31.3406 36.2967C30.7769 36.1883 29.3081 35.3008 28.6647 35.0016C28.483 35.3832 28.2223 36.1768 27.8193 36.3572C27.5851 36.4621 27.3217 36.3961 27.0963 36.3032C26.7512 36.1609 26.1093 35.8938 25.975 35.5289C25.8397 35.1614 26.2974 34.2927 26.4628 33.9469C25.8603 33.6902 25.2919 33.342 24.7125 33.0364C24.3323 32.8357 23.9107 32.6737 23.5626 32.4201C23.4109 32.3097 23.3176 32.1869 23.2133 32.0345Z" fill="#F7D15A"/>
<path d="M27.2054 33.3959C27.4956 33.3947 27.845 33.6206 28.1003 33.7584C28.2354 33.8313 28.4429 33.9348 28.4884 34.0909C28.4561 34.3745 27.8426 35.6847 27.6473 35.8839C27.1842 35.7425 26.722 35.4628 26.2852 35.2515C26.485 34.7559 26.828 33.7413 27.2054 33.3959Z" fill="#EAAE2F"/>
<path d="M39.229 39.0767C40.0719 39.0765 40.9189 39.059 41.7611 39.0836L41.7761 39.1292C41.978 39.7346 42.2821 40.3301 42.5411 40.9134C43.1639 42.3124 43.8123 43.6995 44.4862 45.0746C44.6198 45.3508 44.7595 45.6239 44.9052 45.8939C45.02 46.1029 45.1627 46.316 45.2439 46.5401C45.3676 46.8816 45.416 47.2617 45.4839 47.6184L45.8375 49.4781C46.3022 51.8125 46.739 54.1521 47.148 56.4969C47.3087 57.3914 47.4321 58.2975 47.6132 59.1877C47.5972 59.2045 47.5847 59.2255 47.5652 59.2382C47.4511 59.312 45.1545 59.7895 44.8166 59.8591C43.9851 56.5389 43.2089 53.2001 42.3066 49.8983C42.1634 49.3742 41.9246 48.1917 41.6849 47.7651C41.4633 47.3709 41.0851 47.0182 40.8075 46.6546C39.7786 45.307 38.7094 43.99 37.6816 42.6413L38.8227 40.0167C38.9592 39.7044 39.0793 39.3827 39.229 39.0767Z" fill="#291C2A"/>
<path d="M39.7771 8.20125C39.898 7.89561 40.0637 7.52351 40.3407 7.33052C40.5946 7.15371 40.9771 7.18164 41.267 7.23989C42.2548 7.43835 43.5033 8.2909 44.052 9.13692C44.2893 9.50289 44.3919 9.92404 44.2949 10.3556C44.1575 10.9665 43.7165 11.3791 43.2048 11.6987C43.1872 12.054 43.2092 12.641 43.1191 12.9653L43.1101 13.075C43.1593 13.4681 43.1196 13.8661 43.1427 14.2604C43.2009 15.2534 43.4958 16.2551 42.8335 17.1154C42.4256 17.6452 41.816 18.0574 41.1442 18.1415C40.8963 18.1725 40.6434 18.1675 40.3942 18.1653C39.2567 18.0476 38.0581 17.3494 37.2898 16.5248C37.2726 16.6386 37.2554 16.7503 37.249 16.8654C37.2445 16.9465 37.2256 16.9969 37.1911 17.0701C37.129 17.0992 37.0825 17.0981 37.0146 17.0978C36.1987 16.9412 35.5603 16.4416 35.0636 15.7868C34.2603 14.7278 33.8224 13.1558 34.0164 11.8349C34.1682 10.8014 34.7355 9.94096 35.5686 9.32144C36.6741 8.49929 38.4046 7.99808 39.7771 8.20125Z" fill="#B65143"/>
<path d="M38.3693 10.5157C38.7783 10.7335 39.1935 10.9392 39.6147 11.1326C40.6944 11.6183 42.0411 12.1398 43.2048 11.6987C43.1873 12.054 43.2093 12.641 43.1192 12.9653L43.1102 13.075C43.1594 13.4681 43.1197 13.866 43.1427 14.2604C43.2009 15.2534 43.4959 16.2551 42.8336 17.1154C42.4257 17.6452 41.8161 18.0574 41.1442 18.1415C40.8964 18.1725 40.6434 18.1675 40.3942 18.1653C39.2568 18.0476 38.0582 17.3494 37.2899 16.5248C37.088 16.1937 36.9178 15.7971 36.7183 15.4994C36.5607 15.5101 36.4006 15.521 36.2449 15.4867C36.0225 15.4376 35.8158 15.2995 35.6989 15.1023C35.5496 14.8506 35.516 14.4709 35.5992 14.1924C35.6066 14.1677 35.6153 14.1434 35.6251 14.1195C35.635 14.0956 35.646 14.0723 35.6581 14.0495C35.6702 14.0267 35.6834 14.0045 35.6977 13.9831C35.712 13.9616 35.7273 13.9408 35.7437 13.9208C35.76 13.9008 35.7773 13.8816 35.7955 13.8634C35.8137 13.845 35.8328 13.8277 35.8527 13.8112C35.8726 13.7948 35.8933 13.7793 35.9147 13.7649C35.9361 13.7505 35.9582 13.7372 35.9809 13.7249C36.0007 13.7143 36.0209 13.7048 36.0417 13.6964C36.0624 13.6879 36.0836 13.6806 36.1051 13.6743C36.1266 13.6681 36.1483 13.6629 36.1704 13.6589C36.1924 13.655 36.2146 13.6522 36.237 13.6506C36.2593 13.649 36.2817 13.6485 36.3041 13.6492C36.3265 13.6499 36.3487 13.6518 36.3709 13.6548C36.3931 13.6579 36.4151 13.6621 36.4369 13.6674C36.4586 13.6728 36.48 13.6793 36.5011 13.6869C36.8607 13.8191 37.0436 14.264 37.1904 14.5857C37.2464 14.2312 37.2565 13.8853 37.2529 13.5273C37.4095 13.3585 37.5689 13.1895 37.7132 13.01C38.3017 12.2782 38.4676 11.4294 38.3693 10.5157Z" fill="#F3D1AE"/>
<path d="M36.1445 14.1239C36.3877 14.1527 36.6107 14.2844 36.7815 14.4582C36.9303 14.6097 37.0197 14.7363 37.0226 14.9506C36.9654 14.9283 36.9545 14.9167 36.9162 14.8679C36.684 14.5717 36.3991 14.3873 36.1445 14.1239Z" fill="#EC6C25"/>
<path d="M41.3698 14.2258C41.3785 14.2284 41.3872 14.2304 41.3956 14.2336C41.5348 14.2878 41.7011 14.5296 41.7622 14.6621C41.8089 14.7633 41.8014 14.8209 41.7661 14.9239C41.731 14.9181 41.6979 14.9143 41.6644 14.9004C41.5538 14.8547 41.4412 14.6659 41.3948 14.563C41.3357 14.4317 41.3195 14.3626 41.3698 14.2258Z" fill="#E4A987"/>
<path d="M43.1098 13.075C42.9405 13.0538 41.7457 12.867 41.7014 12.8451C41.6527 12.7682 41.6553 12.7695 41.6682 12.679C41.7034 12.6451 41.7159 12.6256 41.764 12.6103C42.1377 12.491 42.7967 12.79 43.1188 12.9653L43.1098 13.075Z" fill="#B65143"/>
<path d="M42.3357 13.5789C42.4552 13.5863 42.5495 13.6031 42.6365 13.6924C42.7144 13.7724 42.7487 13.8784 42.741 13.9891C42.7288 14.164 42.6583 14.255 42.5295 14.3659C42.5116 14.3664 42.4936 14.3673 42.4757 14.3675C42.374 14.3688 42.2996 14.3339 42.2309 14.2603C42.1519 14.1756 42.1276 14.0629 42.1365 13.9505C42.1499 13.7808 42.2124 13.6908 42.3357 13.5789Z" fill="#1F2048"/>
<path d="M39.444 13.7031C39.5653 13.7058 39.6498 13.7195 39.7384 13.8123C39.8201 13.8976 39.8526 14.01 39.845 14.1263C39.8333 14.3028 39.7638 14.4005 39.6328 14.5126C39.6155 14.5126 39.5983 14.513 39.581 14.5125C39.4799 14.5095 39.3802 14.4576 39.3156 14.3801C39.2362 14.2846 39.2141 14.1621 39.2289 14.041C39.2486 13.8791 39.3207 13.8019 39.444 13.7031Z" fill="#1F2048"/>
<path d="M39.7135 12.6367C39.8077 12.6413 39.8367 12.633 39.9136 12.6912C39.9322 12.7405 39.9482 12.7721 39.9381 12.8261C39.9297 12.8718 39.8839 12.8923 39.844 12.9101C39.4627 13.0811 39.1002 13.1919 38.7341 13.4095C38.715 13.4173 38.6934 13.4276 38.6726 13.4291C38.6115 13.4336 38.5902 13.427 38.5486 13.3851C38.5434 13.3182 38.5479 13.2821 38.5876 13.2254C38.7998 12.9232 39.3666 12.717 39.7135 12.6367Z" fill="#B65143"/>
<path d="M42.0251 15.4532C42.1823 15.4308 42.3521 15.4412 42.5111 15.4394C42.3996 15.6797 42.2837 15.8876 42.0477 16.0296C41.7635 16.2006 41.4589 16.1664 41.1546 16.0825C40.8712 15.9571 40.7042 15.8088 40.5254 15.5624C41.0261 15.537 41.526 15.5006 42.0251 15.4532Z" fill="#FEFEFE"/>
<path d="M32.3337 39.7281C32.4501 39.5261 32.5309 39.2789 32.6235 39.0633L33.2363 39.0701L36.0472 39.0769C36.4845 39.0777 36.9627 39.1162 37.3961 39.0706L39.2296 39.0767C39.0798 39.3827 38.9597 39.7044 38.8233 40.0167L37.6822 42.6413C37.2208 43.559 36.8292 44.519 36.4274 45.4638L35.5456 47.4865C35.3436 47.9564 35.0116 48.8891 34.7718 49.2785C34.587 49.5787 33.0033 50.8033 32.6336 51.1096C31.4339 52.1033 30.2384 53.1053 29.0253 54.0824C27.5755 55.2501 26.0983 56.4072 24.7203 57.6598C24.023 56.8724 23.3135 56.0961 22.5918 55.331C22.8974 55.0932 23.1777 54.8015 23.4627 54.5383L25.1377 52.9962L31.1901 47.3968C31.3513 46.7231 31.4052 46.0023 31.5105 45.3161L32.2495 40.2478C32.2654 40.073 32.3019 39.9006 32.3337 39.7281Z" fill="#373761"/>
<path d="M32.3341 39.7281C32.4506 39.5261 32.5314 39.2789 32.6239 39.0633L33.2367 39.0701C33.1234 39.2911 32.5647 40.1928 32.3542 40.2624C32.3177 40.2744 32.2853 40.2572 32.25 40.2479C32.2658 40.073 32.3024 39.9006 32.3341 39.7281Z" fill="#1F2048"/>
<path d="M34.6991 19.9917C35.0319 19.9509 35.3269 19.9273 35.6598 19.9659C36.2226 20.1638 36.6601 20.3906 36.9282 20.9537C37.0436 21.1959 37.1073 21.4352 37.1958 21.685C37.2958 21.8285 37.3936 21.9711 37.4827 22.1218C37.7334 22.3665 37.9187 22.7277 38.1359 23.0102C38.8993 24.0036 39.8266 25.1691 40.9538 25.7548C41.1911 25.5462 41.3702 25.3157 41.5488 25.056C41.6568 25.2453 41.6217 25.6583 41.6434 25.8828C41.7297 26.7768 41.8407 27.667 41.9141 28.5625L42.0387 30.1436C42.0668 30.4863 42.0703 30.8705 42.1707 31.2003C42.1382 31.7315 42.2015 32.726 42.287 33.2472C42.2425 33.8688 42.3148 34.5235 42.3323 35.1479C42.3577 36.4593 42.3938 37.7705 42.4406 39.0814C42.2152 39.0823 41.9861 39.0921 41.7611 39.0836C40.9188 39.0591 40.0718 39.0766 39.229 39.0767L37.3955 39.0706C36.9621 39.1163 36.4839 39.0777 36.0466 39.0769L33.2357 39.0701L32.6229 39.0633L33.5391 36.847C33.7553 36.3199 33.9514 35.7682 34.2169 35.2643C33.9403 35.0276 33.6869 34.7395 33.4293 34.4809C32.5759 33.6005 31.6997 32.7392 30.8362 31.8683C30.5887 31.6187 30.324 31.3823 30.0836 31.1265C29.8662 30.8953 29.743 30.5749 29.5266 30.3587C29.261 30.2037 28.998 30.0417 28.7168 29.9165C28.8953 29.6383 29.0585 29.347 29.2276 29.0629C29.3022 28.4467 29.689 27.8467 29.9667 27.3006L31.0829 25.1143C31.2872 24.7145 31.5234 24.3094 31.6893 23.8928C31.9023 23.5148 32.1077 23.1363 32.3014 22.7482C32.6428 22.0643 32.9345 21.3477 33.4783 20.7964L33.4638 20.6923C33.7243 20.5564 33.931 20.3281 34.1911 20.1891C34.3358 20.1117 34.5897 20.1021 34.6991 19.9917Z" fill="#2395A0"/>
<path d="M33.013 28.5252C32.9652 28.8561 32.9219 29.207 32.9226 29.5413C32.9113 29.6062 32.9144 29.6594 32.8695 29.7093C32.7094 29.6619 32.5729 29.4779 32.4551 29.3603C32.653 29.0937 32.7858 28.7662 33.013 28.5252Z" fill="#FEFEFE"/>
<path d="M29.2276 29.0629C29.2599 29.5273 29.3292 29.9329 29.5266 30.3587C29.261 30.2037 28.998 30.0417 28.7168 29.9165C28.8953 29.6383 29.0585 29.347 29.2276 29.0629Z" fill="#68B2B8"/>
<path d="M36.7149 33.6242C36.8909 33.5275 38.0234 33.5358 38.2371 33.601C38.3595 33.6384 38.5226 33.732 38.5878 33.8468C38.6615 33.9768 38.6808 34.1943 38.691 34.3444C38.7165 34.7193 38.7371 37.0648 38.6628 37.2835C38.5885 37.5021 38.3959 37.6503 38.2016 37.7577C37.2303 37.7927 36.2515 37.7621 35.2792 37.7636C35.276 37.2635 35.2187 36.6923 35.2964 36.1991L35.3932 36.3027C35.3518 36.7537 35.3926 37.2378 35.3934 37.6927C36.049 37.7194 37.6247 37.7628 38.2015 37.6643C38.2733 37.6037 38.3446 37.5354 38.4048 37.4634C38.4239 37.4404 38.4416 37.4163 38.4578 37.3911C38.4739 37.366 38.4884 37.3399 38.5013 37.3129C38.5142 37.2858 38.5254 37.2581 38.5349 37.2298C38.5443 37.2014 38.552 37.1725 38.5578 37.1431C38.633 36.7674 38.6223 34.7295 38.5664 34.3369C38.5423 34.1679 38.4864 33.9161 38.3364 33.8112C38.0077 33.5813 37.1849 33.6327 36.7894 33.6914L36.7149 33.6242Z" fill="#063F88"/>
<path d="M37.1963 21.6849C37.2963 21.8285 37.394 21.971 37.4831 22.1218C37.3817 22.0964 37.3634 21.9894 37.2812 22.0001C37.2471 22.131 37.2663 22.2797 37.3041 22.408C37.405 22.7508 37.2386 23.4666 37.1509 23.8123C36.9839 24.4706 36.7219 25.1031 36.5158 25.7498C36.1441 26.9081 35.7864 28.0707 35.4426 29.2375C35.197 30.0516 34.9357 30.862 34.7357 31.6887C34.6293 31.5497 34.443 31.3902 34.3691 31.2407C35.0258 29.0783 35.9194 26.9931 36.5905 24.8354C36.7967 24.1724 37.0305 23.4996 37.1431 22.8132C37.2052 22.4352 37.2032 22.0662 37.1963 21.6849Z" fill="#0E797C"/>
<path d="M34.2171 35.2643C34.3803 35.436 34.6715 35.6432 34.7821 35.8393L34.8557 35.9029L34.9885 35.8707L35.0633 35.9266C35.0199 36.4531 33.5504 38.5072 33.144 39.0474C34.1723 39.0561 35.2007 39.0594 36.2291 39.0573C36.5404 39.0577 37.1111 39.0079 37.3957 39.0706C36.9623 39.1162 36.4841 39.0777 36.0468 39.0769L33.2359 39.0701L32.623 39.0633L33.5392 36.8469C33.7555 36.3199 33.9516 35.7682 34.2171 35.2643Z" fill="#0E797C"/>
<path d="M35.454 24.4096C35.0624 25.7508 34.619 27.09 34.1595 28.4094C33.9326 29.0609 33.651 29.7074 33.4652 30.3704C33.3105 30.2293 33.1293 30.0837 33.0089 29.9119C33.0007 29.9002 32.9933 29.888 32.9851 29.8763C32.9088 29.7651 32.9187 29.6736 32.9226 29.5413C32.9218 29.2069 32.9652 28.8561 33.013 28.5252C33.2077 28.3053 33.3582 27.9676 33.5031 27.7105C33.8735 27.0565 34.2398 26.4002 34.6021 25.7418C34.8144 25.355 35.0145 24.9116 35.2768 24.5585C35.3255 24.4929 35.3842 24.4506 35.454 24.4096Z" fill="#0E797C"/>
<path d="M34.7812 35.8393C35.0143 35.4016 36.4611 33.8216 36.5011 33.5809C36.5056 33.5539 36.5073 33.5265 36.5131 33.4998C36.603 33.5139 36.6442 33.5666 36.7134 33.6241L36.7879 33.6914C37.1835 33.6327 38.0063 33.5812 38.3349 33.8111C38.4849 33.916 38.5408 34.1678 38.5649 34.3369C38.6208 34.7294 38.6315 36.7673 38.5564 37.1431C38.5505 37.1724 38.5428 37.2013 38.5334 37.2297C38.524 37.2581 38.5128 37.2858 38.4999 37.3128C38.487 37.3398 38.4725 37.3659 38.4563 37.3911C38.4401 37.4163 38.4224 37.4403 38.4033 37.4633C38.3431 37.5354 38.2718 37.6037 38.2 37.6642C37.6232 37.7628 36.0476 37.7193 35.3919 37.6926C35.3911 37.2377 35.3503 36.7537 35.3918 36.3026L35.2949 36.199C35.2149 36.1103 35.1375 36.0195 35.0625 35.9265L34.9877 35.8706L34.8549 35.9029L34.7812 35.8393Z" fill="#2395A0"/>
<path d="M34.7812 35.8393C35.0143 35.4016 36.4611 33.8216 36.5011 33.5809C36.5056 33.5539 36.5073 33.5265 36.5131 33.4998C36.603 33.5139 36.6442 33.5666 36.7134 33.6241L36.7879 33.6914C37.0664 33.9418 37.3463 34.1875 37.6373 34.4234C37.0588 35.2123 36.3643 35.918 35.7826 36.7049C35.6538 36.5694 35.5235 36.4353 35.3918 36.3026L35.2949 36.1991C35.2149 36.1104 35.1374 36.0195 35.0625 35.9265L34.9877 35.8706L34.8549 35.9029L34.7812 35.8393Z" fill="#F3D1AE"/>
<path d="M34.7003 19.9917C35.033 19.9509 35.328 19.9273 35.6609 19.9659C36.2237 20.1638 36.6612 20.3906 36.9293 20.9537C37.0447 21.1959 37.1084 21.4352 37.197 21.685C37.2039 22.0662 37.2059 22.4352 37.1438 22.8132C37.0311 23.4996 36.7973 24.1724 36.5911 24.8354C35.9201 26.9932 35.0265 29.0783 34.3698 31.2408C34.1282 31.1752 33.6413 30.5778 33.4661 30.3704C33.6519 29.7074 33.9336 29.0609 34.1604 28.4094C34.6199 27.09 35.0634 25.7508 35.4549 24.4096C35.6601 23.7207 36.1248 23.0522 36.2528 22.3749C36.3417 21.9044 36.2348 21.3703 35.951 20.9807C35.6865 20.6176 35.2741 20.397 34.833 20.3392C34.3045 20.2701 33.8831 20.4866 33.4794 20.7964L33.4648 20.6923C33.7254 20.5564 33.9321 20.3281 34.1922 20.189C34.337 20.1117 34.5908 20.1021 34.7003 19.9917Z" fill="url(#paint0_linear_869_4276)"/>
<defs>
<linearGradient id="paint0_linear_869_4276" x1="37.0881" y1="26.9114" x2="31.9924" y2="23.5528" gradientUnits="userSpaceOnUse">
<stop stop-color="#EEB227"/>
<stop offset="1" stop-color="#F9D077"/>
</linearGradient>
</defs>
</svg>
